<svg width="461" height="189" xmlns="http://www.w3.org/2000/svg" xmlns:xlink="http://www.w3.org/1999/xlink" xml:space="preserve" overflow="hidden"><defs><clipPath id="clip0"><rect x="2560" y="1141" width="461" height="189"/></clipPath></defs><g clip-path="url(#clip0)" transform="translate(-2560 -1141)"><path d="M2560.03 1170.78C2560.03 1153.56 2572.62 1141.26 2589.89 1141.25L2988.74 1141.01C3006.01 1141 3020.03 1153.56 3020.03 1170.78L3020.03 1296.19C3020.03 1313.41 3006.13 1329.01 2988.85 1329.01L2560.03 1328.82Z" fill="#FACD62" fill-rule="evenodd"/><path d="M2821.02 1195.05 2821.02 1170.05 2837.66 1170.05 2837.66 1174.59 2826.51 1174.59 2826.51 1180.16 2836.64 1180.16 2836.64 1184.7 2826.51 1184.7 2826.51 1190.51 2838.01 1190.51 2838.01 1195.05Z" fill="#FFFFFF" fill-rule="evenodd"/><path d="M2841.02 1195.06 2841.02 1176.48 2844.61 1176.48 2845.37 1179.32C2847.14 1177.14 2849.42 1176.06 2852.23 1176.06 2854.43 1176.06 2856.11 1176.71 2857.27 1178.02 2858.44 1179.31 2859.02 1181.18 2859.02 1183.64L2859.02 1195.06 2853.5 1195.06 2853.5 1183.82C2853.5 1181.54 2852.52 1180.41 2850.56 1180.41 2849.69 1180.41 2848.89 1180.66 2848.17 1181.15 2847.46 1181.64 2846.92 1182.33 2846.53 1183.22L2846.53 1195.06Z" fill="#FFFFFF" fill-rule="evenodd"/><path d="M2864.34 1188.46 2864.34 1180.33 2861.02 1180.33 2861.02 1177.68 2864.59 1176.25 2866.2 1171.05 2869.77 1171.05 2869.77 1176.36 2873.8 1176.36 2873.8 1180.33 2869.77 1180.33 2869.77 1188.18C2869.77 1189.09 2869.99 1189.74 2870.45 1190.14 2870.92 1190.51 2871.6 1190.69 2872.48 1190.69 2872.72 1190.69 2872.98 1190.69 2873.27 1190.69 2873.55 1190.67 2873.8 1190.65 2874.02 1190.62L2874.02 1194.84C2873.45 1194.94 2872.92 1195 2872.45 1195.02 2871.99 1195.04 2871.48 1195.05 2870.91 1195.05 2868.74 1195.05 2867.1 1194.52 2865.98 1193.45 2864.89 1192.38 2864.34 1190.72 2864.34 1188.46Z" fill="#FFFFFF" fill-rule="evenodd"/><path d="M2892.15 1194.72C2890.38 1195.61 2888.25 1196.06 2885.78 1196.06 2882.64 1196.06 2880.23 1195.2 2878.55 1193.49 2876.86 1191.75 2876.02 1189.26 2876.02 1186 2876.02 1182.89 2876.83 1180.46 2878.44 1178.7 2880.08 1176.94 2882.33 1176.06 2885.19 1176.06 2887.73 1176.06 2889.67 1176.83 2891.01 1178.37 2892.35 1179.91 2893.02 1182.05 2893.02 1184.77L2893.02 1187.56 2881.25 1187.56C2881.45 1189.05 2881.96 1190.14 2882.77 1190.81 2883.6 1191.49 2884.79 1191.83 2886.34 1191.83 2887.31 1191.83 2888.23 1191.74 2889.11 1191.57 2890.01 1191.38 2891.02 1191.05 2892.15 1190.6ZM2885.12 1180.04C2882.66 1180.04 2881.33 1181.35 2881.14 1183.98L2888.34 1183.98C2888.3 1182.75 2887.99 1181.78 2887.41 1181.08 2886.83 1180.38 2886.07 1180.04 2885.12 1180.04Z" fill="#FFFFFF" fill-rule="evenodd"/><path d="M2902.36 1195.06 2897.02 1195.06 2897.02 1176.16 2900.5 1176.16 2901.24 1178.95C2901.85 1178.04 2902.61 1177.34 2903.52 1176.84 2904.44 1176.32 2905.49 1176.06 2906.68 1176.06 2907.2 1176.06 2907.65 1176.09 2908.02 1176.16L2908.02 1181.06 2906.9 1181.06C2905.7 1181.06 2904.71 1181.38 2903.91 1182.02 2903.11 1182.64 2902.6 1183.47 2902.36 1184.52Z" fill="#FFFFFF" fill-rule="evenodd"/><path d="M2911.02 1202.06 2911.02 1176.48 2914.52 1176.48 2915.26 1179.21C2916.76 1177.11 2918.71 1176.05 2921.11 1176.05 2923.56 1176.05 2925.49 1176.92 2926.9 1178.65 2928.32 1180.35 2929.02 1182.71 2929.02 1185.73 2929.02 1188.79 2928.33 1191.17 2926.94 1192.87 2925.57 1194.58 2923.65 1195.43 2921.15 1195.43 2919.29 1195.43 2917.7 1194.81 2916.39 1193.58L2916.39 1202.06ZM2919.99 1179.94C2919.26 1179.94 2918.56 1180.13 2917.9 1180.51 2917.27 1180.86 2916.74 1181.33 2916.31 1181.94L2916.31 1189.86C2917.26 1190.98 2918.47 1191.54 2919.95 1191.54 2921.13 1191.54 2922.03 1191.05 2922.67 1190.07 2923.3 1189.07 2923.62 1187.63 2923.62 1185.76 2923.62 1183.89 2923.3 1182.46 2922.67 1181.45 2922.06 1180.45 2921.16 1179.94 2919.99 1179.94ZM2915.61 1183.45 2915.82 1182.89C2915.73 1183.07 2915.66 1183.26 2915.61 1183.45Z" fill="#FFFFFF" fill-rule="evenodd"/><path d="M2938.36 1195.06 2933.02 1195.06 2933.02 1176.16 2936.5 1176.16 2937.24 1178.95C2937.85 1178.04 2938.61 1177.34 2939.52 1176.84 2940.44 1176.32 2941.49 1176.06 2942.69 1176.06 2943.2 1176.06 2943.65 1176.09 2944.02 1176.16L2944.02 1181.06 2942.9 1181.06C2941.7 1181.06 2940.71 1181.38 2939.91 1182.02 2939.11 1182.64 2938.6 1183.47 2938.36 1184.52Z" fill="#FFFFFF" fill-rule="evenodd"/><path d="M2947.34 1173.17 2947.34 1169.05 2953.02 1169.05 2953.02 1173.17ZM2947.88 1195.05 2947.88 1180.21 2946.02 1178.59 2946.02 1176.44 2953.02 1176.44 2953.02 1195.05Z" fill="#FFFFFF" fill-rule="evenodd"/><path d="M2957.51 1194.79 2957.51 1190.45C2958.71 1190.91 2959.79 1191.25 2960.77 1191.46 2961.76 1191.66 2962.77 1191.75 2963.82 1191.75 2965.83 1191.75 2966.84 1191.22 2966.84 1190.16 2966.84 1189.75 2966.64 1189.41 2966.24 1189.15 2965.87 1188.88 2965.24 1188.62 2964.35 1188.35L2961.76 1187.59C2960.19 1187.11 2959.01 1186.44 2958.22 1185.57 2957.42 1184.7 2957.02 1183.57 2957.02 1182.17 2957.02 1180.26 2957.72 1178.77 2959.13 1177.68 2960.53 1176.6 2962.46 1176.06 2964.91 1176.06 2965.96 1176.06 2967.02 1176.15 2968.1 1176.35 2969.17 1176.54 2970.1 1176.8 2970.87 1177.14L2970.87 1181.41C2968.95 1180.66 2967 1180.29 2965.01 1180.29 2963.15 1180.29 2962.21 1180.78 2962.21 1181.77 2962.21 1182.11 2962.4 1182.41 2962.77 1182.68 2963.15 1182.94 2963.77 1183.21 2964.63 1183.47L2967.22 1184.23C2969 1184.76 2970.24 1185.43 2970.94 1186.26 2971.66 1187.08 2972.02 1188.27 2972.02 1189.84 2972.02 1191.89 2971.34 1193.44 2969.96 1194.5 2968.58 1195.54 2966.57 1196.06 2963.93 1196.06 2962.74 1196.06 2961.54 1195.94 2960.35 1195.7 2959.16 1195.48 2958.22 1195.18 2957.51 1194.79Z" fill="#FFFFFF" fill-rule="evenodd"/><path d="M2990.16 1194.72C2988.38 1195.61 2986.26 1196.06 2983.79 1196.06 2980.65 1196.06 2978.24 1195.2 2976.55 1193.49 2974.87 1191.75 2974.03 1189.26 2974.03 1186 2974.03 1182.89 2974.83 1180.46 2976.45 1178.7 2978.09 1176.94 2980.34 1176.06 2983.2 1176.06 2985.74 1176.06 2987.68 1176.83 2989.02 1178.37 2990.36 1179.91 2991.02 1182.05 2991.02 1184.77L2991.02 1187.56 2979.25 1187.56C2979.46 1189.05 2979.97 1190.14 2980.78 1190.81 2981.61 1191.49 2982.8 1191.83 2984.34 1191.83 2985.31 1191.83 2986.24 1191.74 2987.11 1191.57 2988.01 1191.38 2989.03 1191.05 2990.16 1190.6ZM2983.13 1180.04C2980.66 1180.04 2979.33 1181.35 2979.15 1183.98L2986.35 1183.98C2986.31 1182.75 2985.99 1181.78 2985.42 1181.08 2984.84 1180.38 2984.08 1180.04 2983.13 1180.04Z" fill="#FFFFFF" fill-rule="evenodd"/><path d="M2888.02 1242.1 2888.02 1246.58C2887.09 1246.99 2886 1247.33 2884.76 1247.61 2883.55 1247.91 2882.2 1248.06 2880.72 1248.06 2876.55 1248.06 2873.39 1246.92 2871.24 1244.65 2869.09 1242.35 2868.02 1239.06 2868.02 1234.76 2868.02 1232.12 2868.54 1229.86 2869.59 1227.98 2870.64 1226.07 2872.13 1224.62 2874.06 1223.61 2876 1222.57 2878.3 1222.06 2880.97 1222.06 2882.23 1222.06 2883.4 1222.18 2884.48 1222.44 2885.55 1222.69 2886.49 1223.01 2887.3 1223.4L2887.3 1227.95C2886.04 1227.49 2884.94 1227.17 2884.01 1226.98 2883.11 1226.8 2882.22 1226.71 2881.36 1226.71 2878.91 1226.71 2877.02 1227.41 2875.71 1228.81 2874.4 1230.21 2873.74 1232.19 2873.74 1234.76 2873.74 1237.54 2874.39 1239.69 2875.67 1241.2 2876.96 1242.7 2878.86 1243.44 2881.36 1243.44 2882.37 1243.44 2883.38 1243.34 2884.4 1243.13 2885.45 1242.9 2886.66 1242.56 2888.02 1242.1Z" fill="#FFFFFF" fill-rule="evenodd"/><path d="M2900.02 1248.06C2897.19 1248.06 2894.98 1247.22 2893.38 1245.55 2891.81 1243.88 2891.02 1241.54 2891.02 1238.54 2891.02 1235.54 2891.81 1233.21 2893.38 1231.57 2894.98 1229.89 2897.19 1229.06 2900.02 1229.06 2902.87 1229.06 2905.08 1229.89 2906.66 1231.57 2908.23 1233.21 2909.02 1235.54 2909.02 1238.54 2909.02 1241.54 2908.23 1243.88 2906.66 1245.55 2905.08 1247.22 2902.87 1248.06 2900.02 1248.06ZM2900.02 1244.11C2902.53 1244.11 2903.78 1242.25 2903.78 1238.54 2903.78 1234.85 2902.53 1233.01 2900.02 1233.01 2897.51 1233.01 2896.25 1234.85 2896.25 1238.54 2896.25 1242.25 2897.51 1244.11 2900.02 1244.11Z" fill="#FFFFFF" fill-rule="evenodd"/><path d="M2913.02 1248.06 2913.02 1229.48 2916.5 1229.48 2917.23 1232.22C2918.8 1230.11 2920.84 1229.06 2923.34 1229.06 2925.89 1229.06 2927.65 1230.05 2928.64 1232.04 2929.36 1231.11 2930.25 1230.38 2931.3 1229.87 2932.38 1229.33 2933.52 1229.06 2934.74 1229.06 2936.78 1229.06 2938.33 1229.71 2939.41 1231.03 2940.48 1232.31 2941.02 1234.19 2941.02 1236.64L2941.02 1248.06 2935.69 1248.06 2935.69 1236.82C2935.69 1234.55 2934.81 1233.41 2933.06 1233.41 2932.26 1233.41 2931.57 1233.66 2930.99 1234.15 2930.4 1234.64 2929.96 1235.33 2929.65 1236.22L2929.65 1248.06 2924.39 1248.06 2924.39 1236.82C2924.39 1234.55 2923.52 1233.41 2921.79 1233.41 2921 1233.41 2920.3 1233.66 2919.69 1234.15 2919.1 1234.64 2918.66 1235.33 2918.35 1236.22L2918.35 1248.06Z" fill="#FFFFFF" fill-rule="evenodd"/><path d="M2945.02 1248.06 2945.02 1229.48 2948.5 1229.48 2949.23 1232.22C2950.8 1230.11 2952.84 1229.06 2955.34 1229.06 2957.89 1229.06 2959.66 1230.05 2960.64 1232.04 2961.36 1231.11 2962.25 1230.38 2963.3 1229.87 2964.38 1229.33 2965.53 1229.06 2966.74 1229.06 2968.78 1229.06 2970.33 1229.71 2971.41 1231.03 2972.49 1232.31 2973.02 1234.19 2973.02 1236.64L2973.02 1248.06 2967.69 1248.06 2967.69 1236.82C2967.69 1234.55 2966.81 1233.41 2965.06 1233.41 2964.26 1233.41 2963.57 1233.66 2962.99 1234.15 2962.4 1234.64 2961.96 1235.33 2961.66 1236.22L2961.66 1248.06 2956.39 1248.06 2956.39 1236.82C2956.39 1234.55 2955.53 1233.41 2953.8 1233.41 2953 1233.41 2952.3 1233.66 2951.69 1234.15 2951.11 1234.64 2950.66 1235.33 2950.36 1236.22L2950.36 1248.06Z" fill="#FFFFFF" fill-rule="evenodd"/><path d="M2977.52 1246.85 2977.52 1242.73C2978.71 1243.17 2979.79 1243.49 2980.78 1243.69 2981.76 1243.88 2982.77 1243.97 2983.82 1243.97 2985.83 1243.97 2986.84 1243.46 2986.84 1242.46 2986.84 1242.07 2986.64 1241.75 2986.24 1241.49 2985.87 1241.24 2985.24 1240.99 2984.35 1240.74L2981.76 1240.02C2980.19 1239.56 2979.01 1238.92 2978.22 1238.09 2977.42 1237.27 2977.02 1236.19 2977.02 1234.86 2977.02 1233.05 2977.73 1231.63 2979.13 1230.6 2980.53 1229.57 2982.46 1229.06 2984.91 1229.06 2985.96 1229.06 2987.03 1229.15 2988.1 1229.33 2989.18 1229.52 2990.1 1229.77 2990.87 1230.09L2990.87 1234.14C2988.95 1233.43 2987 1233.08 2985.02 1233.08 2983.15 1233.08 2982.21 1233.55 2982.21 1234.49 2982.21 1234.81 2982.4 1235.09 2982.77 1235.34 2983.15 1235.6 2983.77 1235.85 2984.63 1236.1L2987.22 1236.82C2989 1237.33 2990.24 1237.97 2990.94 1238.75 2991.66 1239.53 2992.03 1240.66 2992.03 1242.15 2992.03 1244.09 2991.34 1245.57 2989.96 1246.58 2988.58 1247.56 2986.57 1248.06 2983.93 1248.06 2982.74 1248.06 2981.55 1247.94 2980.35 1247.71 2979.16 1247.51 2978.22 1247.22 2977.52 1246.85Z" fill="#FFFFFF" fill-rule="evenodd"/><path d="M2883.02 1301.06 2883.02 1275.06 2892.19 1275.06C2895.53 1275.06 2897.97 1275.62 2899.53 1276.74 2901.11 1277.86 2901.9 1279.61 2901.9 1281.97 2901.9 1283.13 2901.59 1284.18 2900.97 1285.11 2900.35 1286.04 2899.48 1286.78 2898.38 1287.33 2901.47 1288.28 2903.02 1290.32 2903.02 1293.45 2903.02 1298.52 2899.48 1301.06 2892.41 1301.06ZM2888.42 1285.83 2891.15 1285.83C2893.04 1285.83 2894.38 1285.59 2895.14 1285.11 2895.93 1284.61 2896.33 1283.78 2896.33 1282.61 2896.33 1281.39 2895.95 1280.55 2895.18 1280.07 2894.41 1279.57 2893.07 1279.32 2891.15 1279.32L2888.42 1279.32ZM2888.42 1296.77 2891.98 1296.77C2893.82 1296.77 2895.18 1296.49 2896.04 1295.91 2896.9 1295.34 2897.34 1294.45 2897.34 1293.23 2897.34 1292.04 2896.9 1291.17 2896.04 1290.62 2895.18 1290.07 2893.82 1289.8 2891.98 1289.8L2888.42 1289.8Z" fill="#FFFFFF" fill-rule="evenodd"/><path d="M2911.36 1301.06 2906.02 1301.06 2906.02 1282.17 2909.5 1282.17 2910.24 1284.96C2910.85 1284.05 2911.61 1283.35 2912.52 1282.85 2913.44 1282.33 2914.49 1282.06 2915.68 1282.06 2916.2 1282.06 2916.65 1282.1 2917.02 1282.17L2917.02 1287.06 2915.9 1287.06C2914.7 1287.06 2913.71 1287.38 2912.91 1288.03 2912.11 1288.65 2911.6 1289.48 2911.36 1290.53Z" fill="#FFFFFF" fill-rule="evenodd"/><path d="M2928.02 1301.06C2925.19 1301.06 2922.98 1300.23 2921.38 1298.55 2919.81 1296.88 2919.02 1294.54 2919.02 1291.54 2919.02 1288.54 2919.81 1286.22 2921.38 1284.57 2922.98 1282.9 2925.19 1282.06 2928.02 1282.06 2930.87 1282.06 2933.09 1282.9 2934.66 1284.57 2936.23 1286.22 2937.02 1288.54 2937.02 1291.54 2937.02 1294.54 2936.23 1296.88 2934.66 1298.55 2933.09 1300.23 2930.87 1301.06 2928.02 1301.06ZM2928.02 1297.11C2930.53 1297.11 2931.79 1295.25 2931.79 1291.54 2931.79 1287.86 2930.53 1286.01 2928.02 1286.01 2925.51 1286.01 2924.26 1287.86 2924.26 1291.54 2924.26 1295.25 2925.51 1297.11 2928.02 1297.11Z" fill="#FFFFFF" fill-rule="evenodd"/><path d="M2941.02 1301.06 2941.02 1274.06 2946.41 1274.06 2946.41 1289.56 2952.82 1282.04 2958.7 1282.04 2951.97 1289.92 2959.02 1301.06 2953 1301.06 2947.86 1292.72 2946.41 1292.72 2946.41 1301.06Z" fill="#FFFFFF" fill-rule="evenodd"/><path d="M2976.16 1299.79C2974.38 1300.64 2972.26 1301.06 2969.79 1301.06 2966.65 1301.06 2964.24 1300.25 2962.55 1298.62 2960.87 1296.97 2960.02 1294.6 2960.02 1291.51 2960.02 1288.55 2960.83 1286.24 2962.45 1284.57 2964.09 1282.9 2966.34 1282.06 2969.2 1282.06 2971.74 1282.06 2973.68 1282.79 2975.02 1284.26 2976.36 1285.73 2977.02 1287.75 2977.02 1290.34L2977.02 1292.99 2965.25 1292.99C2965.46 1294.41 2965.97 1295.44 2966.78 1296.08 2967.61 1296.72 2968.8 1297.04 2970.34 1297.04 2971.31 1297.04 2972.24 1296.96 2973.11 1296.8 2974.01 1296.62 2975.03 1296.31 2976.16 1295.87ZM2969.13 1285.84C2966.66 1285.84 2965.33 1287.09 2965.15 1289.59L2972.35 1289.59C2972.3 1288.42 2971.99 1287.5 2971.41 1286.84 2970.84 1286.17 2970.08 1285.84 2969.13 1285.84Z" fill="#FFFFFF" fill-rule="evenodd"/><path d="M2985.37 1301.06 2980.03 1301.06 2980.03 1282.17 2983.5 1282.17 2984.24 1284.96C2984.85 1284.05 2985.61 1283.35 2986.53 1282.85 2987.44 1282.33 2988.5 1282.06 2989.69 1282.06 2990.21 1282.06 2990.65 1282.1 2991.03 1282.17L2991.03 1287.06 2989.9 1287.06C2988.71 1287.06 2987.71 1287.38 2986.91 1288.03 2986.12 1288.65 2985.6 1289.48 2985.37 1290.53Z" fill="#FFFFFF" fill-rule="evenodd"/><path d="M51.0102 16.9927 34.3782-0.00691798 34.3782 8.49273 0.00997336 8.49273 0.00997336 25.4924 34.3782 25.4924 34.3782 33.9931Z" fill="#FFFFFF" fill-rule="evenodd" transform="matrix(1 0 0 -1 2739 1252)"/><path d="M0.00290545 16.9926 16.9595 33.9931 16.9595 25.4927 52.0028 25.4927 52.0028 8.49282 16.9595 8.49282 16.9595-0.00691805Z" fill="#FFFFFF" fill-rule="evenodd" transform="matrix(1 0 0 -1 2632 1252)"/><path d="M16.0068-0.036239 0.00660906 12.2836 8.00688 12.2836 8.00688 43.9641 24.0063 43.9641 24.0063 12.2836 32.0066 12.2836Z" fill="#FFFFFF" fill-rule="evenodd" transform="matrix(1 0 0 -1 2694 1197)"/><path d="M15.5062 44.022 31.0063 30.631 23.2563 30.631 23.2563 0.0220163 7.75612 0.0220163 7.75612 30.631 0.00640237 30.631Z" fill="#FFFFFF" fill-rule="evenodd" transform="matrix(1 0 0 -1 2695 1317)"/><path d="M2673 1234.95C2673 1214.63 2689.68 1197.95 2710 1197.95 2730.47 1197.95 2747 1214.63 2747 1234.95 2747 1255.41 2730.47 1271.95 2710 1271.95 2689.68 1271.95 2673 1255.41 2673 1234.95Z" fill="#FFFFFF" fill-rule="evenodd"/><path d="M2701.93 1228.17C2702.48 1230.3 2705.64 1235.66 2708.65 1238.56 2711.65 1241.45 2715.82 1245.43 2716.93 1245.06 2718.05 1244.69 2720.54 1241.58 2721.75 1240.68 2722.95 1239.79 2723.85 1239.39 2724.68 1239.63 2725.51 1239.87 2726.26 1240.28 2726.86 1240.93 2727.46 1241.58 2730.58 1245 2730.58 1245 2730.58 1245 2733.51 1248.33 2733.85 1248.69 2733.85 1248.69 2735.28 1250.22 2733.85 1251.84L2730.4 1255.13C2730.4 1255.13 2726.62 1258.99 2725.66 1259.16 2723.23 1259.59 2722.65 1259.57 2720.89 1259 2719.51 1258.54 2714.65 1256.5 2712.2 1255.11 2709.75 1253.71 2703.35 1248.69 2700.98 1245.97 2698.61 1243.24 2693.24 1235.66 2691.74 1232.68 2690.31 1229.86 2689.36 1226.93 2688.81 1223.67 2688.35 1220.86 2688.34 1219.57 2689.05 1218.21 2689.76 1216.84 2692.56 1214.03 2692.56 1214.03 2692.56 1214.03 2695.88 1210.46 2696.93 1210.46 2697.99 1210.46 2698.21 1210.46 2699.27 1211.27 2700.32 1212.08 2702.85 1215.19 2702.85 1215.19 2702.85 1215.19 2705.74 1217.87 2706.83 1220.08 2707.91 1222.29 2706.83 1222.89 2706.83 1222.89Z" stroke="#FCFBFA" stroke-width="0.104659" stroke-miterlimit="8" fill="#FACD62" fill-rule="evenodd"/><path d="M41.3199 6.4921 19.544 6.4921C12.536 6.4921 6.85794 12.1555 6.85794 19.114 6.85794 26.1022 12.536 31.7363 19.544 31.7363L41.3199 31.7363C48.3516 31.7363 54.0239 26.1022 54.0239 19.114 54.0239 12.1555 48.3516 6.4921 41.3199 6.4921ZM41.8617 38.6139 19.0623 38.6139C8.22773 38.6139-0.559714 29.8829-0.559714 19.0993-0.559714 8.32686 8.22773-0.385907 19.0623-0.385907L41.8617-0.385907C52.7077-0.385907 61.4409 8.32686 61.4409 19.0993 61.4409 29.8829 52.7077 38.6139 41.8617 38.6139" fill="#FFFFFF" fill-rule="evenodd" transform="matrix(1 0 0 -1 2572 1315)"/></g></svg>