<svg width="134" height="55" xmlns="http://www.w3.org/2000/svg" xmlns:xlink="http://www.w3.org/1999/xlink" xml:space="preserve" overflow="hidden"><defs><clipPath id="clip0"><rect x="760" y="297" width="134" height="55"/></clipPath><clipPath id="clip1"><path d="M789.288 320.811 810.361 320.811 810.361 341.92 789.288 341.92ZM797.425 329.827 798.663 328.588C798.663 328.588 798.937 328.446 798.663 327.928 798.389 327.409 797.657 326.78 797.657 326.78 797.657 326.78 797.018 326.049 796.752 325.859 796.486 325.669 796.429 325.669 796.164 325.669 795.898 325.669 795.058 326.509 795.058 326.509 795.058 326.509 794.352 327.168 794.172 327.488 793.992 327.808 793.994 328.112 794.112 328.77 794.25 329.537 794.491 330.225 794.851 330.887 795.231 331.586 796.587 333.366 797.186 334.006 797.784 334.645 799.401 335.825 800.019 336.152 800.637 336.48 801.865 336.958 802.215 337.064 802.659 337.199 802.807 337.204 803.419 337.104 803.663 337.063 804.616 336.158 804.616 336.158L805.488 335.385C805.851 335.004 805.489 334.645 805.489 334.645 805.402 334.56 804.663 333.779 804.663 333.779 804.663 333.779 803.875 332.975 803.723 332.822 803.571 332.67 803.381 332.575 803.172 332.518 802.963 332.461 802.735 332.556 802.431 332.766 802.128 332.975 801.497 333.705 801.216 333.793 800.935 333.88 799.88 332.946 799.122 332.266 798.363 331.586 797.565 330.327 797.425 329.827Z"/></clipPath></defs><g clip-path="url(#clip0)" transform="translate(-760 -297)"><path d="M0.0031051 8.69776C0.0031051 3.66843 3.66843 0.0741167 8.69776 0.0711695L124.845 0.0031051C129.875 0.000157835 133.957 3.66843 133.957 8.69776L133.957 45.3229C133.957 50.3522 129.907 54.9082 124.878 54.9082L0.0031051 54.8519Z" fill="#455C5C" fill-rule="evenodd" transform="matrix(1 0 0 1.00172 760.02 296.997)"/><path d="M81.9995-57.5693 81.9995-65.0198 86.8469-65.0198 86.8469-63.667 83.5983-63.667 83.5983-62.0068 86.5497-62.0068 86.5497-60.654 83.5983-60.654 83.5983-58.9221 86.9494-58.9221 86.9494-57.5693Z" fill="#FFFFFF" transform="matrix(1 0 0 1.00172 754.691 371.006)"/><path d="M88.0562-57.5693 88.0562-62.9906 89.0708-62.9906 89.286-62.1605C89.7846-62.7959 90.4302-63.1136 91.2229-63.1136 91.8445-63.1136 92.3195-62.9225 92.6474-62.5397 92.9754-62.1641 93.1393-61.6174 93.1393-60.9L93.1393-57.5693 91.5816-57.5693 91.5816-60.8488C91.5816-61.5118 91.3049-61.8428 90.7515-61.8428 90.5055-61.8428 90.2801-61.7711 90.0751-61.6276 89.8768-61.4841 89.7231-61.2828 89.6139-61.023L89.6139-57.5693Z" fill="#FFFFFF" transform="matrix(1 0 0 1.00172 754.691 371.006)"/><path d="M94.7176-59.4345 94.7176-61.8223 93.7645-61.8223 93.7645-62.6012 94.7893-63.0214 95.2505-64.5484 96.2753-64.5484 96.2753-62.9906 97.4333-62.9906 97.4333-61.8223 96.2753-61.8223 96.2753-59.5165C96.2753-59.25 96.3399-59.0589 96.47-58.9426 96.6063-58.8334 96.801-58.7786 97.0542-58.7786 97.1223-58.7786 97.1976-58.7786 97.2796-58.7786 97.3616-58.7858 97.4333-58.7925 97.4948-58.7991L97.4948-57.5591C97.3309-57.5319 97.1802-57.515 97.0439-57.5078 96.9137-57.5012 96.7672-57.4976 96.6032-57.4976 95.9812-57.4976 95.5098-57.6549 95.189-57.969 94.8744-58.2836 94.7176-58.772 94.7176-59.4345Z" fill="#FFFFFF" transform="matrix(1 0 0 1.00172 754.691 371.006)"/><path d="M102.885-57.8255C102.359-57.5729 101.73-57.4464 101-57.4464 100.07-57.4464 99.3564-57.6892 98.8578-58.174 98.3587-58.6659 98.1097-59.373 98.1097-60.2954 98.1097-61.1767 98.3485-61.8669 98.8271-62.3655 99.3118-62.8646 99.978-63.1136 100.825-63.1136 101.577-63.1136 102.151-62.8953 102.547-62.4577 102.943-62.0206 103.142-61.416 103.142-60.6438L103.142-59.8547 99.6572-59.8547C99.7187-59.4314 99.8688-59.124 100.108-58.9323 100.354-58.7412 100.706-58.6454 101.164-58.6454 101.451-58.6454 101.724-58.6695 101.984-58.7171 102.25-58.772 102.55-58.8642 102.885-58.9938ZM100.805-61.9863C100.074-61.9863 99.6808-61.6143 99.6264-60.8693L101.758-60.8693C101.744-61.2177 101.652-61.4913 101.481-61.6891 101.31-61.8874 101.085-61.9863 100.805-61.9863Z" fill="#FFFFFF" transform="matrix(1 0 0 1.00172 754.691 371.006)"/><path d="M105.745-57.5693 104.187-57.5693 104.187-62.9906 105.201-62.9906 105.417-62.1913C105.594-62.4511 105.816-62.6524 106.083-62.7959 106.349-62.9466 106.657-63.0214 107.005-63.0214 107.155-63.0214 107.285-63.0111 107.395-62.9906L107.395-61.5866 107.067-61.5866C106.718-61.5866 106.428-61.4944 106.196-61.3099 105.963-61.1326 105.813-60.8933 105.745-60.5926Z" fill="#FFFFFF" transform="matrix(1 0 0 1.00172 754.691 371.006)"/><path d="M108.389-55.5094 108.389-62.9906 109.403-62.9906 109.618-62.1913C110.056-62.8062 110.623-63.1136 111.32-63.1136 112.03-63.1136 112.59-62.861 113-62.3552 113.41-61.8567 113.615-61.1665 113.615-60.2851 113.615-59.3904 113.413-58.6936 113.011-58.1945 112.614-57.6959 112.054-57.4464 111.33-57.4464 110.79-57.4464 110.329-57.6277 109.946-57.9895L109.946-55.5094ZM110.992-61.9761C110.78-61.9761 110.578-61.9217 110.387-61.8121 110.203-61.7096 110.049-61.5697 109.926-61.3919L109.926-59.0758C110.199-58.7479 110.551-58.5839 110.981-58.5839 111.323-58.5839 111.586-58.7274 111.771-59.0143 111.955-59.3085 112.047-59.7286 112.047-60.2749 112.047-60.8216 111.955-61.2418 111.771-61.5354 111.593-61.8295 111.333-61.9761 110.992-61.9761ZM109.721-60.9512 109.782-61.1152C109.755-61.0609 109.734-61.0061 109.721-60.9512Z" fill="#FFFFFF" transform="matrix(1 0 0 1.00172 754.691 371.006)"/><path d="M116.249-57.5693 114.691-57.5693 114.691-62.9906 115.706-62.9906 115.921-62.1913C116.098-62.4511 116.321-62.6524 116.587-62.7959 116.854-62.9466 117.161-63.0214 117.51-63.0214 117.66-63.0214 117.789-63.0111 117.899-62.9906L117.899-61.5866 117.571-61.5866C117.223-61.5866 116.932-61.4944 116.7-61.3099 116.467-61.1326 116.317-60.8933 116.249-60.5926Z" fill="#FFFFFF" transform="matrix(1 0 0 1.00172 754.691 371.006)"/><path d="M118.903-63.9437 118.903-65.1428 120.625-65.1428 120.625-63.9437ZM119.067-57.5693 119.067-61.8941 118.504-62.3655 118.504-62.9906 120.625-62.9906 120.625-57.5693Z" fill="#FFFFFF" transform="matrix(1 0 0 1.00172 754.691 371.006)"/><path d="M121.752-57.805 121.752-59.0348C122.1-58.9052 122.418-58.8094 122.705-58.7479 122.992-58.6936 123.289-58.6659 123.597-58.6659 124.184-58.6659 124.478-58.8165 124.478-59.1168 124.478-59.2331 124.42-59.3289 124.304-59.4038 124.194-59.4791 124.01-59.5544 123.75-59.6292L122.992-59.8444C122.534-59.9812 122.189-60.1724 121.957-60.4183 121.725-60.6643 121.608-60.9856 121.608-61.3817 121.608-61.9217 121.813-62.345 122.223-62.6524 122.633-62.9599 123.197-63.1136 123.914-63.1136 124.222-63.1136 124.533-63.0865 124.847-63.0316 125.161-62.9773 125.431-62.902 125.656-62.8062L125.656-61.5969C125.096-61.809 124.526-61.9146 123.945-61.9146 123.399-61.9146 123.125-61.7747 123.125-61.4944 123.125-61.3991 123.18-61.3135 123.289-61.2382 123.399-61.1634 123.58-61.0881 123.832-61.0127L124.591-60.7975C125.11-60.6474 125.472-60.4562 125.677-60.2236 125.889-59.9915 125.995-59.6533 125.995-59.209 125.995-58.6285 125.793-58.1878 125.39-57.887 124.987-57.5934 124.399-57.4464 123.627-57.4464 123.279-57.4464 122.93-57.4807 122.582-57.5488 122.233-57.6103 121.957-57.6959 121.752-57.805Z" fill="#FFFFFF" transform="matrix(1 0 0 1.00172 754.691 371.006)"/><path d="M131.436-57.8255C130.911-57.5729 130.282-57.4464 129.551-57.4464 128.622-57.4464 127.908-57.6892 127.409-58.174 126.91-58.6659 126.661-59.373 126.661-60.2954 126.661-61.1767 126.9-61.8669 127.378-62.3655 127.863-62.8646 128.529-63.1136 129.376-63.1136 130.128-63.1136 130.702-62.8953 131.098-62.4577 131.495-62.0206 131.693-61.416 131.693-60.6438L131.693-59.8547 128.208-59.8547C128.27-59.4314 128.42-59.124 128.659-58.9323 128.905-58.7412 129.257-58.6454 129.715-58.6454 130.002-58.6454 130.275-58.6695 130.535-58.7171 130.801-58.772 131.102-58.8642 131.436-58.9938ZM129.356-61.9863C128.625-61.9863 128.232-61.6143 128.177-60.8693L130.309-60.8693C130.296-61.2177 130.204-61.4913 130.032-61.6891 129.862-61.8874 129.636-61.9863 129.356-61.9863Z" fill="#FFFFFF" transform="matrix(1 0 0 1.00172 754.691 371.006)"/><path d="M81.7228-42.0537C80.6088-42.0537 79.748-42.3885 79.1403-43.058 78.5387-43.7344 78.2384-44.6909 78.2384-45.9275 78.2384-47.1504 78.5423-48.1001 79.1505-48.7765 79.7582-49.4529 80.616-49.7911 81.7228-49.7911 82.8296-49.7911 83.6869-49.4529 84.2951-48.7765 84.9028-48.1001 85.2072-47.1504 85.2072-45.9275 85.2072-44.6909 84.9064-43.7344 84.3054-43.058 83.7038-42.3885 82.843-42.0537 81.7228-42.0537ZM81.7228-43.4167C82.3444-43.4167 82.8055-43.6319 83.1063-44.0623 83.4138-44.4928 83.5675-45.1145 83.5675-45.9275 83.5675-46.7405 83.4138-47.3588 83.1063-47.7824 82.8055-48.2129 82.3444-48.4281 81.7228-48.4281 81.1008-48.4281 80.6365-48.2129 80.3291-47.7824 80.0283-47.3588 79.8781-46.7405 79.8781-45.9275 79.8781-45.1145 80.0283-44.4928 80.3291-44.0623 80.6365-43.6319 81.1008-43.4167 81.7228-43.4167Z" fill="#FFFFFF" transform="matrix(1 0 0 1.00172 754.691 371.006)"/><path d="M86.355-40.1373 86.355-47.6185 87.3696-47.6185 87.5848-46.8191C88.0219-47.434 88.5891-47.7414 89.286-47.7414 89.9962-47.7414 90.5568-47.4886 90.9667-46.9831 91.3766-46.4843 91.5816-45.7943 91.5816-44.9129 91.5816-44.0179 91.3797-43.321 90.977-42.8223 90.5804-42.3235 90.0203-42.0742 89.2963-42.0742 88.7562-42.0742 88.295-42.2552 87.9128-42.6173L87.9128-40.1373ZM88.9581-46.6039C88.7459-46.6039 88.5445-46.5492 88.3534-46.4399 88.169-46.3374 88.0152-46.1973 87.8922-46.0197L87.8922-43.7037C88.1654-43.3757 88.5174-43.2117 88.9478-43.2117 89.2891-43.2117 89.5525-43.3552 89.7369-43.6422 89.9214-43.9359 90.0136-44.3561 90.0136-44.9027 90.0136-45.4492 89.9214-45.8694 89.7369-46.1632 89.5591-46.457 89.2993-46.6039 88.9581-46.6039ZM87.6873-45.5791 87.7488-45.743C87.7211-45.6884 87.7006-45.6337 87.6873-45.5791Z" fill="#FFFFFF" transform="matrix(1 0 0 1.00172 754.691 371.006)"/><path d="M97.1566-42.4534C96.6304-42.2006 96.0017-42.0742 95.271-42.0742 94.3415-42.0742 93.6277-42.3167 93.1291-42.8018 92.63-43.2937 92.381-44.0009 92.381-44.9232 92.381-45.8045 92.6198-46.4945 93.0983-46.9933 93.5831-47.4921 94.2492-47.7414 95.0967-47.7414 95.8479-47.7414 96.4218-47.5228 96.8184-47.0856 97.2145-46.6483 97.4128-46.0436 97.4128-45.2716L97.4128-44.4825 93.9285-44.4825C93.9899-44.0589 94.1401-43.7515 94.3794-43.5602 94.6253-43.3688 94.9768-43.2732 95.4349-43.2732 95.7219-43.2732 95.995-43.2971 96.2548-43.345 96.5212-43.3996 96.8215-43.4918 97.1566-43.6217ZM95.0762-46.6141C94.345-46.6141 93.952-46.2418 93.8977-45.4971L96.0293-45.4971C96.0155-45.8455 95.9233-46.1188 95.7526-46.3169 95.5815-46.515 95.356-46.6141 95.0762-46.6141Z" fill="#FFFFFF" transform="matrix(1 0 0 1.00172 754.691 371.006)"/><path d="M100.016-42.1972 98.4582-42.1972 98.4582-47.6185 99.4727-47.6185 99.6879-46.8191C99.8652-47.0787 100.088-47.2803 100.354-47.4238 100.621-47.574 100.928-47.6492 101.276-47.6492 101.427-47.6492 101.556-47.639 101.666-47.6185L101.666-46.2145 101.338-46.2145C100.989-46.2145 100.699-46.1222 100.467-45.9378 100.234-45.7601 100.084-45.521 100.016-45.2204Z" fill="#FFFFFF" transform="matrix(1 0 0 1.00172 754.691 371.006)"/><path d="M105.857-42.1972 105.652-42.9555C105.468-42.6822 105.225-42.467 104.925-42.3099 104.631-42.1527 104.303-42.0742 103.941-42.0742 103.38-42.0742 102.937-42.2279 102.609-42.5354 102.287-42.8428 102.127-43.2664 102.127-43.8061 102.127-44.3732 102.342-44.8207 102.773-45.1486 103.203-45.4766 103.784-45.6406 104.515-45.6406L105.406-45.6406 105.406-45.8353C105.406-46.1359 105.331-46.3306 105.181-46.4194 105.03-46.5082 104.795-46.5527 104.474-46.5527 103.9-46.5527 103.281-46.4228 102.619-46.1632L102.619-47.3418C102.892-47.4579 103.21-47.5535 103.572-47.6287 103.941-47.7038 104.313-47.7414 104.689-47.7414 105.399-47.7414 105.939-47.5775 106.308-47.2495 106.684-46.9284 106.872-46.4638 106.872-45.8558L106.872-42.1972ZM104.341-43.2117C104.566-43.2117 104.774-43.2698 104.966-43.386 105.157-43.5021 105.314-43.6592 105.437-43.8574L105.437-44.7387 104.71-44.7387C104.354-44.7387 104.077-44.6704 103.879-44.5338 103.688-44.3971 103.593-44.2024 103.593-43.9496 103.593-43.4577 103.842-43.2117 104.341-43.2117Z" fill="#FFFFFF" transform="matrix(1 0 0 1.00172 754.691 371.006)"/><path d="M108.45-44.0623 108.45-46.4502 107.497-46.4502 107.497-47.229 108.522-47.6492 108.983-49.1762 110.008-49.1762 110.008-47.6185 111.166-47.6185 111.166-46.4502 110.008-46.4502 110.008-44.1443C110.008-43.8779 110.072-43.6865 110.203-43.5704 110.339-43.4611 110.534-43.4065 110.787-43.4065 110.855-43.4065 110.93-43.4065 111.012-43.4065 111.094-43.4133 111.166-43.4201 111.227-43.4269L111.227-42.1869C111.063-42.1596 110.913-42.1425 110.777-42.1357 110.646-42.1288 110.5-42.1254 110.336-42.1254 109.714-42.1254 109.242-42.2825 108.922-42.5968 108.607-42.9111 108.45-43.3996 108.45-44.0623Z" fill="#FFFFFF" transform="matrix(1 0 0 1.00172 754.691 371.006)"/><path d="M112.129-48.5716 112.129-49.7706 113.851-49.7706 113.851-48.5716ZM112.293-42.1972 112.293-46.5219 111.73-46.9933 111.73-47.6185 113.851-47.6185 113.851-42.1972Z" fill="#FFFFFF" transform="matrix(1 0 0 1.00172 754.691 371.006)"/><path d="M117.622-42.0742C116.775-42.0742 116.112-42.3235 115.634-42.8223 115.163-43.321 114.927-44.0179 114.927-44.9129 114.927-45.8079 115.163-46.5014 115.634-46.9933 116.112-47.4921 116.775-47.7414 117.622-47.7414 118.476-47.7414 119.139-47.4921 119.61-46.9933 120.082-46.5014 120.318-45.8079 120.318-44.9129 120.318-44.0179 120.082-43.321 119.61-42.8223 119.139-42.3235 118.476-42.0742 117.622-42.0742ZM117.622-43.2527C118.374-43.2527 118.75-43.8061 118.75-44.9129 118.75-46.0129 118.374-46.5629 117.622-46.5629 116.871-46.5629 116.495-46.0129 116.495-44.9129 116.495-43.8061 116.871-43.2527 117.622-43.2527Z" fill="#FFFFFF" transform="matrix(1 0 0 1.00172 754.691 371.006)"/><path d="M121.393-42.1972 121.393-47.6185 122.408-47.6185 122.623-46.7884C123.122-47.4238 123.768-47.7414 124.56-47.7414 125.182-47.7414 125.657-47.5501 125.985-47.1675 126.313-46.7917 126.477-46.2452 126.477-45.5278L126.477-42.1972 124.919-42.1972 124.919-45.4766C124.919-46.1393 124.642-46.4707 124.089-46.4707 123.843-46.4707 123.618-46.3989 123.412-46.2555 123.214-46.112 123.061-45.9104 122.951-45.6508L122.951-42.1972Z" fill="#FFFFFF" transform="matrix(1 0 0 1.00172 754.691 371.006)"/><path d="M127.552-42.4329 127.552-43.6627C127.901-43.5328 128.218-43.4372 128.505-43.3757 128.792-43.321 129.09-43.2937 129.397-43.2937 129.985-43.2937 130.278-43.444 130.278-43.7446 130.278-43.8608 130.22-43.9564 130.104-44.0316 129.995-44.1067 129.811-44.1819 129.551-44.2571L128.792-44.4723C128.335-44.6089 127.99-44.8002 127.757-45.0462 127.525-45.2921 127.409-45.6132 127.409-46.0095 127.409-46.5492 127.614-46.9728 128.024-47.2803 128.434-47.5877 128.997-47.7414 129.715-47.7414 130.022-47.7414 130.333-47.7141 130.647-47.6595 130.962-47.6048 131.231-47.5296 131.457-47.434L131.457-46.2247C130.897-46.4365 130.327-46.5424 129.745-46.5424 129.199-46.5424 128.926-46.4023 128.926-46.1222 128.926-46.0266 128.98-45.9411 129.09-45.866 129.199-45.7909 129.38-45.7157 129.633-45.6406L130.391-45.4254C130.911-45.275 131.272-45.0837 131.477-44.8515 131.69-44.6191 131.795-44.2809 131.795-43.8369 131.795-43.2561 131.594-42.8154 131.19-42.5149 130.788-42.221 130.2-42.0742 129.428-42.0742 129.079-42.0742 128.731-42.1083 128.382-42.1767 128.034-42.2382 127.757-42.3235 127.552-42.4329Z" fill="#FFFFFF" transform="matrix(1 0 0 1.00172 754.691 371.006)"/><path d="M93.3955-26.8248 93.3955-34.2753 95.066-34.2753 97.4333-29.3664 99.7699-34.2753 101.44-34.2753 101.44-26.8248 99.8622-26.8248 99.8622-31.6518 97.8945-27.5422 96.9107-27.5422 94.943-31.5903 94.943-26.8248Z" fill="#FFFFFF" transform="matrix(1 0 0 1.00172 754.691 371.006)"/><path d="M105.263-26.7019C104.415-26.7019 103.753-26.9512 103.275-27.45 102.803-27.9487 102.568-28.6456 102.568-29.5406 102.568-30.4356 102.803-31.1291 103.275-31.621 103.753-32.1197 104.415-32.3691 105.263-32.3691 106.117-32.3691 106.78-32.1197 107.251-31.621 107.723-31.1291 107.958-30.4356 107.958-29.5406 107.958-28.6456 107.723-27.9487 107.251-27.45 106.78-26.9512 106.117-26.7019 105.263-26.7019ZM105.263-27.8804C106.014-27.8804 106.39-28.4338 106.39-29.5406 106.39-30.6406 106.014-31.1906 105.263-31.1906 104.511-31.1906 104.136-30.6406 104.136-29.5406 104.136-28.4338 104.511-27.8804 105.263-27.8804Z" fill="#FFFFFF" transform="matrix(1 0 0 1.00172 754.691 371.006)"/><path d="M109.034-26.8248 109.034-32.2462 110.049-32.2462 110.264-31.416C110.763-32.0514 111.408-32.3691 112.201-32.3691 112.823-32.3691 113.298-32.1778 113.626-31.7952 113.953-31.4194 114.117-30.8729 114.117-30.1555L114.117-26.8248 112.56-26.8248 112.56-30.1043C112.56-30.767 112.283-31.0984 111.73-31.0984 111.484-31.0984 111.258-31.0266 111.053-30.8831 110.855-30.7397 110.701-30.5381 110.592-30.2785L110.592-26.8248Z" fill="#FFFFFF" transform="matrix(1 0 0 1.00172 754.691 371.006)"/><path d="M115.327-33.1992 115.327-34.3983 117.048-34.3983 117.048-33.1992ZM115.491-26.8248 115.491-31.1496 114.927-31.621 114.927-32.2462 117.048-32.2462 117.048-26.8248Z" fill="#FFFFFF" transform="matrix(1 0 0 1.00172 754.691 371.006)"/><path d="M118.678-28.69 118.678-31.0779 117.725-31.0779 117.725-31.8567 118.75-32.2769 119.211-33.8039 120.236-33.8039 120.236-32.2462 121.394-32.2462 121.394-31.0779 120.236-31.0779 120.236-28.772C120.236-28.5056 120.3-28.3142 120.43-28.1981 120.567-28.0888 120.761-28.0341 121.014-28.0341 121.083-28.0341 121.158-28.0341 121.24-28.0341 121.322-28.041 121.394-28.0478 121.455-28.0546L121.455-26.8146C121.291-26.7872 121.141-26.7702 121.004-26.7634 120.874-26.7565 120.728-26.7531 120.564-26.7531 119.941-26.7531 119.47-26.9102 119.149-27.2245 118.835-27.5388 118.678-28.0273 118.678-28.69Z" fill="#FFFFFF" transform="matrix(1 0 0 1.00172 754.691 371.006)"/><path d="M124.765-26.7019C123.918-26.7019 123.255-26.9512 122.777-27.45 122.306-27.9487 122.07-28.6456 122.07-29.5406 122.07-30.4356 122.306-31.1291 122.777-31.621 123.255-32.1197 123.918-32.3691 124.765-32.3691 125.619-32.3691 126.282-32.1197 126.753-31.621 127.225-31.1291 127.461-30.4356 127.461-29.5406 127.461-28.6456 127.225-27.9487 126.753-27.45 126.282-26.9512 125.619-26.7019 124.765-26.7019ZM124.765-27.8804C125.517-27.8804 125.893-28.4338 125.893-29.5406 125.893-30.6406 125.517-31.1906 124.765-31.1906 124.014-31.1906 123.638-30.6406 123.638-29.5406 123.638-28.4338 124.014-27.8804 124.765-27.8804Z" fill="#FFFFFF" transform="matrix(1 0 0 1.00172 754.691 371.006)"/><path d="M130.094-26.8248 128.536-26.8248 128.536-32.2462 129.551-32.2462 129.766-31.4468C129.944-31.7064 130.166-31.908 130.432-32.0514 130.699-32.2017 131.006-32.2769 131.354-32.2769 131.505-32.2769 131.635-32.2666 131.744-32.2462L131.744-30.8421 131.416-30.8421C131.067-30.8421 130.777-30.7499 130.545-30.5654 130.313-30.3878 130.163-30.1486 130.094-29.8481Z" fill="#FFFFFF" transform="matrix(1 0 0 1.00172 754.691 371.006)"/><g clip-path="url(#clip1)"><path d="M27.6369 72.9941C27.6369 68.1761 31.5911 64.2219 36.4092 64.2219 41.2604 64.2219 45.1813 68.1761 45.1813 72.9941 45.1813 77.8453 41.2604 81.7663 36.4092 81.7663 31.5911 81.7663 27.6369 77.8453 27.6369 72.9941Z" fill="#FFFFFF" fill-rule="evenodd" transform="matrix(1 0 0 1.00172 763.415 258.246)"/></g><path d="M73.2216 121.655 69.9143 126.265 70.4202 126.629 73.7281 122.018Z" fill="#FFFFFF" transform="matrix(1 0 0 1.00172 735.793 195.593)"/><path d="M67.3433 125.639 73.9485 121.157 71.8206 128.85C71.1967 126.929 69.3845 125.638 67.3433 125.639Z" fill="#FFFFFF" fill-rule="evenodd" transform="matrix(1 0 0 1.00172 735.793 195.593)"/><path d="M73.9416 120.943C73.9014 120.944 73.8618 120.956 73.8286 120.979L67.2234 125.461C67.1255 125.528 67.1003 125.662 67.1675 125.759 67.2071 125.817 67.273 125.852 67.3433 125.852 69.2935 125.852 71.0222 127.085 71.6172 128.916 71.6543 129.029 71.7754 129.089 71.8878 129.052 71.9549 129.03 72.007 128.976 72.0265 128.907L74.155 121.214C74.187 121.101 74.1205 120.982 74.0062 120.95 73.9855 120.944 73.9635 120.942 73.9416 120.943ZM73.5857 121.662 71.7591 128.27C71.0448 126.738 69.603 125.71 67.9088 125.513Z" fill="#FFFFFF" fill-rule="evenodd" transform="matrix(1 0 0 1.00172 735.793 195.593)"/><path d="M55.8038 0.47474 52.6789-0.835811 53.0637-1.75283 56.1886-0.442273Z" fill="#FFFFFF" transform="matrix(1 0 0 -1.00172 765.195 322.565)"/><path d="M54.2431-8.22467 54.2431-9.21892 57.6317-9.21892 57.6317-8.22467Z" fill="#FFFFFF" transform="matrix(1 0 0 -1.00172 765.195 322.565)"/><path d="M34.1471 14.3354 34.1471 10.9469 35.1414 10.9469 35.1414 14.3354Z" fill="#FFFFFF" transform="matrix(1 0 0 -1.00172 765.195 322.565)"/><path d="M50.6437 7.82806 48.2728 5.40677 48.9838 4.71166 51.3547 7.13171Z" fill="#FFFFFF" transform="matrix(1 0 0 -1.00172 765.195 322.565)"/><path d="M43.6607 12.4757 42.236 9.40096 43.1383 8.98291 44.5628 12.0576Z" fill="#FFFFFF" transform="matrix(1 0 0 -1.00172 765.195 322.565)"/><path d="M25.9689 12.6032 25.0433 12.2403 26.2764 9.08466 27.2034 9.44755Z" fill="#FFFFFF" transform="matrix(1 0 0 -1.00172 765.195 322.565)"/><path d="M11.5147-8.31294 11.5147-9.30719 16.129-9.30719 16.129-8.31294Z" fill="#FFFFFF" transform="matrix(1 0 0 -1.00172 765.195 322.565)"/><path d="M18.7099 7.92122 17.9706 7.25676 20.2386 4.73863 20.9779 5.4031Z" fill="#FFFFFF" transform="matrix(1 0 0 -1.00172 765.195 322.565)"/><path d="M13.5829 0.694188 13.1403-0.19586 16.1734-1.70624 16.6159-0.816194Z" fill="#FFFFFF" transform="matrix(1 0 0 -1.00172 765.195 322.565)"/><path d="M52.023-15.2936 51.5852-16.1861 55.6873-18.2003 56.1262-17.3078Z" fill="#FFFFFF" transform="matrix(1 0 0 -1.00172 765.195 322.565)"/><path d="M34.6387 10.9469C23.524 10.8348 14.93 2.22784 14.8689-8.83643 14.8472-8.83965 16.1243-8.84379 16.1243-8.84379 16.1819 1.57808 24.1737 9.58584 34.6511 9.69151 45.5072 9.80099 53.0073 1.53034 53.0073-8.84011 53.0073-11.9599 52.3182-14.4058 51.7666-15.7619L52.9302-16.2351C53.542-14.7309 54.2628-12.1437 54.2628-8.84011 54.2628 2.14253 46.1443 11.0629 34.6387 10.9469Z" fill="#FFFFFF" transform="matrix(1 0 0 -1.00172 765.195 322.565)"/><path d="M56.3635 4.59809C56.3635 5.10583 55.9519 5.51744 55.4442 5.51744 54.9364 5.51744 54.5248 5.10583 54.5248 4.59809 54.5248 4.09034 54.9364 3.67874 55.4442 3.67874 55.9519 3.67874 56.3635 4.09034 56.3635 4.59809Z" fill="#FFFFFF" transform="matrix(1 0 0 1.00172 765.195 322.565)"/><path d="M53.309-3.14226C53.309-2.63452 52.8974-2.22291 52.3897-2.22291 51.8819-2.22291 51.4703-2.63452 51.4703-3.14226 51.4703-3.65001 51.8819-4.06161 52.3897-4.06161 52.8974-4.06161 53.309-3.65001 53.309-3.14226Z" fill="#FFFFFF" transform="matrix(1 0 0 1.00172 765.195 322.565)"/><path d="M47.7929-9.01427C47.7929-8.50653 47.3812-8.09492 46.8735-8.09492 46.3658-8.09492 45.9541-8.50652 45.9541-9.01427 45.9541-9.52201 46.3658-9.93362 46.8735-9.93362 47.3812-9.93362 47.7929-9.52202 47.7929-9.01427Z" fill="#FFFFFF" transform="matrix(1 0 0 1.00172 765.195 322.565)"/><path d="M40.0229-12.2172C40.0229-11.7094 39.6113-11.2978 39.1035-11.2978 38.5958-11.2978 38.1842-11.7094 38.1842-12.2172 38.1842-12.7249 38.5958-13.1365 39.1035-13.1365 39.6113-13.1365 40.0229-12.7249 40.0229-12.2172Z" fill="#FFFFFF" transform="matrix(1 0 0 1.00172 765.195 322.565)"/><path d="M31.1852-12.2172C31.1852-11.7094 30.7736-11.2978 30.2658-11.2978 29.7581-11.2978 29.3465-11.7094 29.3465-12.2172 29.3465-12.7249 29.7581-13.1365 30.2658-13.1365 30.7736-13.1365 31.1852-12.7249 31.1852-12.2172Z" fill="#FFFFFF" transform="matrix(1 0 0 1.00172 765.195 322.565)"/><path d="M23.3559-8.95495C23.3559-8.4472 22.9443-8.03559 22.4365-8.03559 21.9288-8.03559 21.5172-8.4472 21.5172-8.95495 21.5172-9.46269 21.9288-9.8743 22.4365-9.8743 22.9443-9.8743 23.3559-9.46269 23.3559-8.95495Z" fill="#FFFFFF" transform="matrix(1 0 0 1.00172 765.195 322.565)"/><path d="M17.7211-3.26091C17.7211-2.75316 17.3095-2.34155 16.8017-2.34155 16.294-2.34155 15.8824-2.75316 15.8824-3.26091 15.8824-3.76865 16.294-4.18026 16.8017-4.18026 17.3095-4.18026 17.7211-3.76865 17.7211-3.26091Z" fill="#FFFFFF" transform="matrix(1 0 0 1.00172 765.195 322.565)"/><path d="M14.4589 4.62774C14.4589 5.13549 14.0473 5.54709 13.5395 5.54709 13.0318 5.54709 12.6202 5.13549 12.6202 4.62774 12.6202 4.11999 13.0318 3.70839 13.5395 3.70839 14.0473 3.70839 14.4589 4.11999 14.4589 4.62774Z" fill="#FFFFFF" transform="matrix(1 0 0 1.00172 765.195 322.565)"/><path d="M56.2745 13.2875C56.2745 13.7952 55.8629 14.2068 55.3552 14.2068 54.8474 14.2068 54.4358 13.7952 54.4358 13.2875 54.4358 12.7797 54.8474 12.3681 55.3552 12.3681 55.8629 12.3681 56.2745 12.7797 56.2745 13.2875Z" fill="#FFFFFF" transform="matrix(1 0 0 1.00172 765.195 322.565)"/><path d="M13.5364 4.1019 7.17408 4.1019C5.12663 4.1019 3.46761 5.76619 3.46761 7.81089 3.46761 9.86446 5.12663 11.52 7.17408 11.52L13.5364 11.52C15.5908 11.52 17.2481 9.86446 17.2481 7.81089 17.2481 5.76619 15.5908 4.1019 13.5364 4.1019ZM13.6947 13.5411 7.03336 13.5411C3.86792 13.5411 1.30049 10.9754 1.30049 7.80659 1.30049 4.64112 3.86792 2.08083 7.03336 2.08083L13.6947 2.08083C16.8636 2.08083 19.4151 4.64112 19.4151 7.80659 19.4151 10.9754 16.8636 13.5411 13.6947 13.5411" fill="#FFFFFF" transform="matrix(1 0 0 -1.00172 761.974 350.423)"/></g></svg>