<svg width="134" height="55" xmlns="http://www.w3.org/2000/svg" xmlns:xlink="http://www.w3.org/1999/xlink" xml:space="preserve" overflow="hidden"><defs><clipPath id="clip0"><rect x="608" y="247" width="134" height="55"/></clipPath></defs><g clip-path="url(#clip0)" transform="translate(-608 -247)"><path d="M0.0031051 8.69776C0.0031051 3.66843 3.66843 0.0741167 8.69776 0.0711695L124.845 0.0031051C129.875 0.000157835 133.957 3.66843 133.957 8.69776L133.957 45.3229C133.957 50.3522 129.907 54.9082 124.878 54.9082L0.0031051 54.8519Z" fill="#C74634" fill-rule="evenodd" transform="matrix(1 0 0 1.00172 608.02 246.997)"/><path d="M35.2318 71.9489 35.2318 103.692 40.0232 103.692 40.0232 71.9489Z" fill="#FFFFFF" fill-rule="evenodd" transform="matrix(1 0 0 1.00172 608.26 186.527)"/><path d="M42.4188 75.5425C42.4188 74.5695 43.2423 73.7457 44.2157 73.7457 45.2262 73.7457 46.0125 74.5695 46.0125 75.5425 46.0125 76.5534 45.2262 77.3392 44.2157 77.3392 43.2423 77.3392 42.4188 76.5534 42.4188 75.5425Z" fill="#FFFFFF" fill-rule="evenodd" transform="matrix(1 0 0 1.00172 608.26 186.527)"/><path d="M42.4188 83.9275C42.4188 82.9541 43.2423 82.1308 44.2157 82.1308 45.2262 82.1308 46.0125 82.9541 46.0125 83.9275 46.0125 84.938 45.2262 85.7243 44.2157 85.7243 43.2423 85.7243 42.4188 84.938 42.4188 83.9275Z" fill="#FFFFFF" fill-rule="evenodd" transform="matrix(1 0 0 1.00172 608.26 186.527)"/><path d="M42.4188 100.098C42.4188 99.1251 43.2423 98.3017 44.2157 98.3017 45.2262 98.3017 46.0125 99.1251 46.0125 100.098 46.0125 101.109 45.2262 101.895 44.2157 101.895 43.2423 101.895 42.4188 101.109 42.4188 100.098Z" fill="#FFFFFF" fill-rule="evenodd" transform="matrix(1 0 0 1.00172 608.26 186.527)"/><path d="M20.8577 87.8203 24.002 83.9275 24.002 86.4727 30.927 86.4727 30.927 83.9275 34.034 87.8203 30.927 91.7134 30.927 89.2053 24.002 89.2053 24.002 91.7134Z" fill="#FFFFFF" fill-rule="evenodd" transform="matrix(1 0 0 1.00172 608.26 186.527)"/><path d="M54.3971 87.8203 57.5415 83.9275 57.5415 86.4727 63.8677 86.4727 63.8677 83.9275 66.9745 87.8203 63.8677 91.7134 63.8677 89.2053 57.5415 89.2053 57.5415 91.7134Z" fill="#FFFFFF" fill-rule="evenodd" transform="matrix(1 0 0 1.00172 608.26 186.527)"/><path d="M48.2133 71.9451 48.2133 103.688 53.0048 103.688 53.0048 71.9451Z" fill="#FFFFFF" fill-rule="evenodd" transform="matrix(1 0 0 1.00172 608.26 186.527)"/><path d="M42.4143 92.2005C42.4143 91.2276 43.2376 90.4038 44.211 90.4038 45.2219 90.4038 46.0078 91.2276 46.0078 92.2005 46.0078 93.2114 45.2219 93.9973 44.211 93.9973 43.2376 93.9973 42.4143 93.2114 42.4143 92.2005Z" fill="#FFFFFF" fill-rule="evenodd" transform="matrix(1 0 0 1.00172 608.26 186.527)"/><path d="M94.4316-58.3072 94.4316-59.7317C95.2172-59.4381 95.9719-59.291 96.6965-59.291 97.1269-59.291 97.4651-59.3628 97.7111-59.5062 97.957-59.6497 98.08-59.848 98.08-60.1006 98.08-60.2784 98.0011-60.4255 97.8443-60.5413 97.687-60.6643 97.3831-60.8011 96.9322-60.9512L96.1533-61.2177C95.5179-61.4365 95.0532-61.7168 94.7596-62.058 94.4726-62.4065 94.3292-62.8507 94.3292-63.3903 94.3292-63.8551 94.445-64.2548 94.6776-64.5894 94.9164-64.9245 95.2515-65.1807 95.6819-65.358 96.1123-65.5424 96.6247-65.6347 97.2191-65.6347 97.5947-65.6347 97.9637-65.5973 98.326-65.5219 98.6949-65.4538 99.0157-65.358 99.2893-65.235L99.2893-63.8105C98.9408-63.9473 98.5852-64.0498 98.2235-64.1179 97.8612-64.1933 97.5266-64.2307 97.2191-64.2307 96.3716-64.2307 95.9484-63.9816 95.9484-63.4825 95.9484-63.2914 96.0268-63.1341 96.1841-63.0111 96.3481-62.8953 96.6519-62.7621 97.0962-62.6115L97.875-62.345C98.5442-62.1129 99.0192-61.8295 99.2995-61.4944 99.5793-61.1665 99.7197-60.7191 99.7197-60.1519 99.7197-59.455 99.4702-58.9052 98.9716-58.5019 98.4797-58.0992 97.7828-57.8973 96.881-57.8973 96.5868-57.8973 96.2794-57.9147 95.9586-57.9485 95.644-57.9828 95.3504-58.0305 95.0773-58.092 94.8108-58.1535 94.5956-58.2252 94.4316-58.3072Z" fill="#FFFFFF" transform="matrix(1 0 0 1.00172 602.691 321.006)"/><path d="M105.213-58.297C104.687-58.0443 104.058-57.9178 103.327-57.9178 102.398-57.9178 101.684-58.1606 101.185-58.6454 100.686-59.1373 100.437-59.8444 100.437-60.7668 100.437-61.6481 100.676-62.3383 101.154-62.8369 101.639-63.336 102.305-63.585 103.153-63.585 103.904-63.585 104.478-63.3667 104.875-62.9291 105.271-62.4921 105.469-61.8874 105.469-61.1152L105.469-60.3261 101.985-60.3261C102.046-59.9028 102.196-59.5954 102.435-59.4038 102.681-59.2126 103.033-59.1168 103.491-59.1168 103.778-59.1168 104.051-59.1409 104.311-59.1885 104.577-59.2434 104.878-59.3356 105.213-59.4652ZM103.132-62.4577C102.401-62.4577 102.008-62.0857 101.954-61.3407L104.085-61.3407C104.072-61.6891 103.979-61.9627 103.809-62.1605 103.638-62.3588 103.412-62.4577 103.132-62.4577Z" fill="#FFFFFF" transform="matrix(1 0 0 1.00172 602.691 321.006)"/><path d="M106.391-58.2765 106.391-59.5062C106.74-59.3766 107.057-59.2808 107.344-59.2193 107.631-59.165 107.928-59.1373 108.236-59.1373 108.823-59.1373 109.117-59.288 109.117-59.5882 109.117-59.7045 109.059-59.8004 108.943-59.8752 108.833-59.9505 108.649-60.0258 108.39-60.1006L107.631-60.3158C107.173-60.4527 106.828-60.6438 106.596-60.8898 106.364-61.1357 106.247-61.457 106.247-61.8531 106.247-62.3932 106.453-62.8164 106.862-63.1239 107.272-63.4313 107.836-63.585 108.553-63.585 108.861-63.585 109.172-63.5579 109.486-63.503 109.8-63.4487 110.07-63.3734 110.296-63.2776L110.296-62.0683C109.735-62.2804 109.165-62.386 108.584-62.386 108.038-62.386 107.765-62.2461 107.765-61.9658 107.765-61.8705 107.819-61.7849 107.928-61.7096 108.038-61.6348 108.219-61.5595 108.472-61.4841L109.23-61.2689C109.749-61.1188 110.111-60.9277 110.316-60.695 110.528-60.4629 110.634-60.1247 110.634-59.6805 110.634-59.0999 110.432-58.6592 110.029-58.3584 109.626-58.0648 109.038-57.9178 108.266-57.9178 107.918-57.9178 107.569-57.9521 107.221-58.0203 106.872-58.0817 106.596-58.1673 106.391-58.2765Z" fill="#FFFFFF" transform="matrix(1 0 0 1.00172 602.691 321.006)"/><path d="M111.351-58.2765 111.351-59.5062C111.699-59.3766 112.017-59.2808 112.304-59.2193 112.591-59.165 112.888-59.1373 113.196-59.1373 113.783-59.1373 114.077-59.288 114.077-59.5882 114.077-59.7045 114.019-59.8004 113.903-59.8752 113.794-59.9505 113.609-60.0258 113.349-60.1006L112.591-60.3158C112.133-60.4527 111.789-60.6438 111.556-60.8898 111.324-61.1357 111.207-61.457 111.207-61.8531 111.207-62.3932 111.412-62.8164 111.822-63.1239 112.232-63.4313 112.796-63.585 113.513-63.585 113.821-63.585 114.132-63.5579 114.446-63.503 114.76-63.4487 115.03-63.3734 115.255-63.2776L115.255-62.0683C114.695-62.2804 114.125-62.386 113.544-62.386 112.998-62.386 112.724-62.2461 112.724-61.9658 112.724-61.8705 112.779-61.7849 112.888-61.7096 112.998-61.6348 113.179-61.5595 113.431-61.4841L114.19-61.2689C114.709-61.1188 115.071-60.9277 115.276-60.695 115.488-60.4629 115.594-60.1247 115.594-59.6805 115.594-59.0999 115.392-58.6592 114.989-58.3584 114.586-58.0648 113.999-57.9178 113.226-57.9178 112.878-57.9178 112.529-57.9521 112.181-58.0203 111.833-58.0817 111.556-58.1673 111.351-58.2765Z" fill="#FFFFFF" transform="matrix(1 0 0 1.00172 602.691 321.006)"/><path d="M116.444-64.4151 116.444-65.6142 118.166-65.6142 118.166-64.4151ZM116.608-58.0407 116.608-62.3655 116.045-62.8369 116.045-63.4621 118.166-63.4621 118.166-58.0407Z" fill="#FFFFFF" transform="matrix(1 0 0 1.00172 602.691 321.006)"/><path d="M121.937-57.9178C121.09-57.9178 120.428-58.1673 119.949-58.6659 119.478-59.165 119.242-59.8619 119.242-60.7565 119.242-61.6517 119.478-62.345 119.949-62.8369 120.428-63.336 121.09-63.585 121.937-63.585 122.792-63.585 123.454-63.336 123.925-62.8369 124.397-62.345 124.633-61.6517 124.633-60.7565 124.633-59.8619 124.397-59.165 123.925-58.6659 123.454-58.1673 122.792-57.9178 121.937-57.9178ZM121.937-59.0963C122.689-59.0963 123.065-59.6497 123.065-60.7565 123.065-61.8567 122.689-62.4065 121.937-62.4065 121.186-62.4065 120.81-61.8567 120.81-60.7565 120.81-59.6497 121.186-59.0963 121.937-59.0963Z" fill="#FFFFFF" transform="matrix(1 0 0 1.00172 602.691 321.006)"/><path d="M125.709-58.0407 125.709-63.4621 126.723-63.4621 126.938-62.6319C127.438-63.2673 128.083-63.585 128.875-63.585 129.497-63.585 129.972-63.3939 130.3-63.0111 130.628-62.6355 130.792-62.0888 130.792-61.3714L130.792-58.0407 129.234-58.0407 129.234-61.3202C129.234-61.9832 128.957-62.3143 128.404-62.3143 128.158-62.3143 127.933-62.2425 127.728-62.099 127.53-61.9556 127.376-61.7542 127.266-61.4944L127.266-58.0407Z" fill="#FFFFFF" transform="matrix(1 0 0 1.00172 602.691 321.006)"/><path d="M98.8174-42.6686 98.8174-50.119 101.431-50.119C102.381-50.119 103.078-49.9585 103.521-49.6374 103.972-49.3162 104.198-48.8175 104.198-48.1411 104.198-47.8064 104.109-47.5057 103.931-47.2393 103.754-46.9728 103.508-46.7611 103.193-46.6039 104.075-46.3306 104.515-45.7465 104.515-44.8515 104.515-43.3962 103.508-42.6686 101.492-42.6686ZM100.355-47.0343 101.133-47.0343C101.674-47.0343 102.053-47.1026 102.271-47.2393 102.496-47.3828 102.609-47.6219 102.609-47.9567 102.609-48.3051 102.5-48.5476 102.281-48.6843 102.063-48.8278 101.68-48.8995 101.133-48.8995L100.355-48.8995ZM100.355-43.8984 101.369-43.8984C101.895-43.8984 102.281-43.9804 102.527-44.1443 102.773-44.3083 102.896-44.5645 102.896-44.9129 102.896-45.2546 102.773-45.5039 102.527-45.6611 102.281-45.8182 101.895-45.8968 101.369-45.8968L100.355-45.8968Z" fill="#FFFFFF" transform="matrix(1 0 0 1.00172 602.691 321.006)"/><path d="M107.979-42.5456C107.132-42.5456 106.47-42.795 105.991-43.2937 105.52-43.7925 105.284-44.4893 105.284-45.3844 105.284-46.2794 105.52-46.9728 105.991-47.4647 106.47-47.9635 107.132-48.2129 107.979-48.2129 108.833-48.2129 109.496-47.9635 109.967-47.4647 110.439-46.9728 110.675-46.2794 110.675-45.3844 110.675-44.4893 110.439-43.7925 109.967-43.2937 109.496-42.795 108.833-42.5456 107.979-42.5456ZM107.979-43.7241C108.731-43.7241 109.107-44.2776 109.107-45.3844 109.107-46.4844 108.731-47.0343 107.979-47.0343 107.228-47.0343 106.852-46.4844 106.852-45.3844 106.852-44.2776 107.228-43.7241 107.979-43.7241Z" fill="#FFFFFF" transform="matrix(1 0 0 1.00172 602.691 321.006)"/><path d="M113.308-42.6686 111.751-42.6686 111.751-48.0899 112.765-48.0899 112.98-47.2905C113.158-47.5502 113.38-47.7517 113.647-47.8952 113.913-48.0455 114.22-48.1206 114.569-48.1206 114.72-48.1206 114.849-48.1104 114.958-48.0899L114.958-46.6859 114.63-46.6859C114.282-46.6859 113.992-46.5936 113.759-46.4092 113.527-46.2315 113.377-45.9924 113.308-45.6918Z" fill="#FFFFFF" transform="matrix(1 0 0 1.00172 602.691 321.006)"/><path d="M119.724-42.6686 119.508-43.4679C119.071-42.8531 118.504-42.5456 117.807-42.5456 117.097-42.5456 116.537-42.795 116.127-43.2937 115.717-43.7993 115.512-44.4928 115.512-45.3741 115.512-46.2691 115.71-46.966 116.106-47.4647 116.509-47.9635 117.073-48.2129 117.797-48.2129 118.337-48.2129 118.798-48.0318 119.181-47.6697L119.181-50.365 120.738-50.365 120.738-42.6686ZM117.08-45.3844C117.08-44.8378 117.172-44.4176 117.356-44.1238 117.541-43.8301 117.801-43.6832 118.135-43.6832 118.347-43.6832 118.545-43.7344 118.73-43.8369 118.921-43.9462 119.078-44.0897 119.201-44.2673L119.201-46.5834C118.928-46.9113 118.576-47.0753 118.145-47.0753 117.804-47.0753 117.541-46.9284 117.356-46.6346 117.172-46.3477 117.08-45.9309 117.08-45.3844ZM119.406-44.708 119.345-44.544C119.372-44.5987 119.393-44.6533 119.406-44.708Z" fill="#FFFFFF" transform="matrix(1 0 0 1.00172 602.691 321.006)"/><path d="M126.59-42.9248C126.064-42.672 125.436-42.5456 124.704-42.5456 123.775-42.5456 123.062-42.7881 122.562-43.2732 122.064-43.7651 121.814-44.4723 121.814-45.3946 121.814-46.276 122.054-46.966 122.532-47.4647 123.017-47.9635 123.683-48.2129 124.53-48.2129 125.282-48.2129 125.856-47.9942 126.252-47.557 126.648-47.1197 126.846-46.5151 126.846-45.743L126.846-44.9539 123.362-44.9539C123.423-44.5303 123.574-44.2229 123.813-44.0316 124.059-43.8403 124.411-43.7446 124.868-43.7446 125.155-43.7446 125.429-43.7686 125.688-43.8164 125.955-43.8711 126.255-43.9633 126.59-44.0931ZM124.51-47.0856C123.779-47.0856 123.386-46.7132 123.331-45.9685L125.463-45.9685C125.449-46.3169 125.357-46.5902 125.186-46.7884 125.015-46.9865 124.79-47.0856 124.51-47.0856Z" fill="#FFFFFF" transform="matrix(1 0 0 1.00172 602.691 321.006)"/><path d="M129.449-42.6686 127.892-42.6686 127.892-48.0899 128.906-48.0899 129.121-47.2905C129.299-47.5502 129.521-47.7517 129.787-47.8952 130.054-48.0455 130.361-48.1206 130.71-48.1206 130.86-48.1206 130.99-48.1104 131.099-48.0899L131.099-46.6859 130.771-46.6859C130.423-46.6859 130.133-46.5936 129.9-46.4092 129.668-46.2315 129.518-45.9924 129.449-45.6918Z" fill="#FFFFFF" transform="matrix(1 0 0 1.00172 602.691 321.006)"/><path d="M88.3852-28.9257 88.3852-27.5935C88.1187-27.4705 87.8077-27.368 87.4526-27.286 87.1042-27.1972 86.7178-27.1528 86.2945-27.1528 85.0986-27.1528 84.1937-27.491 83.5788-28.1674 82.9639-28.8506 82.6564-29.831 82.6564-31.1086 82.6564-31.8943 82.8066-32.5673 83.1074-33.1275 83.4076-33.6946 83.835-34.1284 84.3884-34.429 84.9418-34.7365 85.6007-34.8902 86.3663-34.8902 86.7281-34.8902 87.0632-34.8526 87.3706-34.7775 87.6781-34.7023 87.9476-34.6067 88.1802-34.4905L88.1802-33.1377C87.818-33.2744 87.5038-33.37 87.2374-33.4247 86.9776-33.4794 86.725-33.5067 86.479-33.5067 85.775-33.5067 85.2354-33.2983 84.8598-32.8815 84.4837-32.4648 84.2962-31.8738 84.2962-31.1086 84.2962-30.2819 84.4806-29.6431 84.8496-29.1922 85.2185-28.7481 85.7617-28.5261 86.479-28.5261 86.766-28.5261 87.056-28.5568 87.3501-28.6183 87.6504-28.6866 87.9958-28.7891 88.3852-28.9257Z" fill="#FFFFFF" transform="matrix(1 0 0 1.00172 602.691 321.006)"/><path d="M91.7978-27.1733C90.9503-27.1733 90.2878-27.4227 89.8097-27.9214 89.3383-28.4201 89.1026-29.117 89.1026-30.012 89.1026-30.9071 89.3383-31.6005 89.8097-32.0924 90.2878-32.5912 90.9503-32.8405 91.7978-32.8405 92.6515-32.8405 93.3146-32.5912 93.786-32.0924 94.2574-31.6005 94.4931-30.9071 94.4931-30.012 94.4931-29.117 94.2574-28.4201 93.786-27.9214 93.3146-27.4227 92.6515-27.1733 91.7978-27.1733ZM91.7978-28.3518C92.549-28.3518 92.9251-28.9052 92.9251-30.012 92.9251-31.112 92.549-31.662 91.7978-31.662 91.0461-31.662 90.6705-31.112 90.6705-30.012 90.6705-28.9052 91.0461-28.3518 91.7978-28.3518Z" fill="#FFFFFF" transform="matrix(1 0 0 1.00172 602.691 321.006)"/><path d="M95.5692-27.2963 95.5692-32.7176 96.5838-32.7176 96.799-31.8875C97.2975-32.5229 97.9432-32.8405 98.7359-32.8405 99.3574-32.8405 99.8324-32.6493 100.16-32.2666 100.488-31.8909 100.652-31.3443 100.652-30.6269L100.652-27.2963 99.0946-27.2963 99.0946-30.5757C99.0946-31.2384 98.8179-31.5698 98.2645-31.5698 98.0185-31.5698 97.793-31.498 97.5881-31.3546 97.3898-31.2111 97.2361-31.0096 97.1269-30.7499L97.1269-27.2963Z" fill="#FFFFFF" transform="matrix(1 0 0 1.00172 602.691 321.006)"/><path d="M102.231-29.1614 102.231-31.5493 101.277-31.5493 101.277-32.3281 102.302-32.7483 102.763-34.2753 103.788-34.2753 103.788-32.7176 104.946-32.7176 104.946-31.5493 103.788-31.5493 103.788-29.2434C103.788-28.977 103.853-28.7857 103.983-28.6695 104.119-28.5602 104.314-28.5056 104.567-28.5056 104.635-28.5056 104.711-28.5056 104.793-28.5056 104.875-28.5124 104.946-28.5192 105.008-28.5261L105.008-27.286C104.844-27.2587 104.693-27.2416 104.557-27.2348 104.427-27.228 104.28-27.2245 104.116-27.2245 103.494-27.2245 103.023-27.3817 102.702-27.6959 102.387-28.0102 102.231-28.4987 102.231-29.1614Z" fill="#FFFFFF" transform="matrix(1 0 0 1.00172 602.691 321.006)"/><path d="M107.56-27.2963 106.002-27.2963 106.002-32.7176 107.016-32.7176 107.232-31.9182C107.409-32.1778 107.631-32.3794 107.898-32.5229 108.164-32.6731 108.472-32.7483 108.82-32.7483 108.97-32.7483 109.1-32.7381 109.21-32.7176L109.21-31.3136 108.882-31.3136C108.533-31.3136 108.243-31.2213 108.011-31.0369 107.778-30.8592 107.628-30.6201 107.56-30.3195Z" fill="#FFFFFF" transform="matrix(1 0 0 1.00172 602.691 321.006)"/><path d="M112.458-27.1733C111.611-27.1733 110.948-27.4227 110.47-27.9214 109.998-28.4201 109.762-29.117 109.762-30.012 109.762-30.9071 109.998-31.6005 110.47-32.0924 110.948-32.5912 111.611-32.8405 112.458-32.8405 113.312-32.8405 113.974-32.5912 114.446-32.0924 114.917-31.6005 115.153-30.9071 115.153-30.012 115.153-29.117 114.917-28.4201 114.446-27.9214 113.974-27.4227 113.312-27.1733 112.458-27.1733ZM112.458-28.3518C113.209-28.3518 113.585-28.9052 113.585-30.012 113.585-31.112 113.209-31.662 112.458-31.662 111.707-31.662 111.33-31.112 111.33-30.012 111.33-28.9052 111.707-28.3518 112.458-28.3518Z" fill="#FFFFFF" transform="matrix(1 0 0 1.00172 602.691 321.006)"/><path d="M116.198-27.2963 116.198-33.8961 115.635-34.3675 115.635-34.9927 117.756-34.9927 117.756-27.2963Z" fill="#FFFFFF" transform="matrix(1 0 0 1.00172 602.691 321.006)"/><path d="M119.181-27.2963 119.181-33.8961 118.617-34.3675 118.617-34.9927 120.738-34.9927 120.738-27.2963Z" fill="#FFFFFF" transform="matrix(1 0 0 1.00172 602.691 321.006)"/><path d="M126.59-27.5525C126.064-27.2997 125.436-27.1733 124.704-27.1733 123.775-27.1733 123.062-27.4158 122.562-27.9009 122.064-28.3928 121.814-29.0999 121.814-30.0223 121.814-30.9036 122.054-31.5937 122.532-32.0924 123.017-32.5912 123.683-32.8405 124.53-32.8405 125.282-32.8405 125.856-32.6219 126.252-32.1847 126.648-31.7474 126.846-31.1428 126.846-30.3707L126.846-29.5816 123.362-29.5816C123.423-29.158 123.574-28.8506 123.813-28.6593 124.059-28.468 124.411-28.3723 124.868-28.3723 125.155-28.3723 125.429-28.3963 125.688-28.4441 125.955-28.4987 126.255-28.591 126.59-28.7208ZM124.51-31.7132C123.779-31.7132 123.386-31.3409 123.331-30.5962L125.463-30.5962C125.449-30.9446 125.357-31.2179 125.186-31.416 125.015-31.6142 124.79-31.7132 124.51-31.7132Z" fill="#FFFFFF" transform="matrix(1 0 0 1.00172 602.691 321.006)"/><path d="M129.449-27.2963 127.892-27.2963 127.892-32.7176 128.906-32.7176 129.121-31.9182C129.299-32.1778 129.521-32.3794 129.787-32.5229 130.054-32.6731 130.361-32.7483 130.71-32.7483 130.86-32.7483 130.99-32.7381 131.099-32.7176L131.099-31.3136 130.771-31.3136C130.423-31.3136 130.133-31.2213 129.9-31.0369 129.668-30.8592 129.518-30.6201 129.449-30.3195Z" fill="#FFFFFF" transform="matrix(1 0 0 1.00172 602.691 321.006)"/><path d="M13.5364 4.1019 7.17408 4.1019C5.12663 4.1019 3.46761 5.76619 3.46761 7.81089 3.46761 9.86446 5.12663 11.52 7.17408 11.52L13.5364 11.52C15.5908 11.52 17.2481 9.86446 17.2481 7.81089 17.2481 5.76619 15.5908 4.1019 13.5364 4.1019ZM13.6947 13.5411 7.03336 13.5411C3.86792 13.5411 1.30049 10.9754 1.30049 7.80659 1.30049 4.64112 3.86792 2.08083 7.03336 2.08083L13.6947 2.08083C16.8636 2.08083 19.4151 4.64112 19.4151 7.80659 19.4151 10.9754 16.8636 13.5411 13.6947 13.5411" fill="#FFFFFF" transform="matrix(1 0 0 -1.00172 609.974 300.423)"/></g></svg>