<svg width="461" height="189" xmlns="http://www.w3.org/2000/svg" xmlns:xlink="http://www.w3.org/1999/xlink" xml:space="preserve" overflow="hidden"><defs><clipPath id="clip0"><rect x="943" y="794" width="461" height="189"/></clipPath><clipPath id="clip1"><rect x="1028" y="817" width="144" height="143"/></clipPath><clipPath id="clip2"><rect x="1028" y="817" width="144" height="143"/></clipPath><clipPath id="clip3"><rect x="1028" y="817" width="144" height="143"/></clipPath></defs><g clip-path="url(#clip0)" transform="translate(-943 -794)"><path d="M943.033 823.785C943.033 806.564 955.62 794.257 972.891 794.247L1371.74 794.013C1389.01 794.003 1403.03 806.564 1403.03 823.785L1403.03 949.193C1403.03 966.413 1389.13 982.013 1371.85 982.013L943.033 981.821Z" fill="#2B6242" fill-rule="evenodd"/><path d="M41.3197 6.65857 19.5438 6.65857C12.5359 6.65857 6.8579 12.4672 6.8579 19.6041 6.8579 26.7715 12.5359 32.5501 19.5438 32.5501L41.3197 32.5501C48.3513 32.5501 54.0236 26.7715 54.0236 19.6041 54.0236 12.4672 48.3513 6.65857 41.3197 6.65857ZM41.8614 39.6041 19.0622 39.6041C8.22768 39.6041-0.559711 30.6492-0.559711 19.5891-0.559711 8.54038 8.22768-0.395802 19.0622-0.395802L41.8614-0.395802C52.7074-0.395802 61.4405 8.54038 61.4405 19.5891 61.4405 30.6492 52.7074 39.6041 41.8614 39.6041" fill="#FFFFFF" fill-rule="evenodd" transform="matrix(1 0 0 -1 957 968)"/><g clip-path="url(#clip1)"><g clip-path="url(#clip2)"><g clip-path="url(#clip3)"><path d="M134.549 59.7802C134.549 50.5765 127.099 43.1259 117.895 43.1259 114.477 43.1259 111.321 44.1778 108.691 45.9309L86.5148 29.7148C86.7778 28.4876 86.9531 27.2605 86.9531 25.9457 86.9531 16.742 79.5024 9.29136 70.2987 9.29136 61.095 9.29136 53.6444 16.742 53.6444 25.9457 53.6444 27.4358 53.8197 28.8383 54.258 30.2407L33.0457 45.6679C30.5037 44.0901 27.4358 43.1259 24.2802 43.1259 15.0765 43.1259 7.62592 50.5765 7.62592 59.7802 7.62592 68.5457 14.3753 75.6457 22.9654 76.3469L31.0296 101.065C26.8222 104.133 24.0173 109.042 24.0173 114.564 24.0173 123.768 31.4679 131.218 40.6716 131.218 47.5963 131.218 53.6444 126.923 56.0988 120.788L86.1642 120.788C88.6185 126.836 94.579 131.218 101.591 131.218 110.795 131.218 118.246 123.768 118.246 114.564 118.246 108.691 115.178 103.607 110.62 100.627L118.509 76.3469C127.362 76.0839 134.549 68.721 134.549 59.7802ZM117.895 51.8913C122.278 51.8913 125.784 55.3975 125.784 59.7802 125.784 64.1629 122.278 67.6691 117.895 67.6691 113.512 67.6691 110.006 64.1629 110.006 59.7802 110.006 55.3975 113.6 51.8913 117.895 51.8913ZM103.783 51.0148C102.205 53.5568 101.241 56.537 101.241 59.7802 101.241 60.3062 101.241 60.8321 101.328 61.358L84.7617 66.6173C82.4827 62.6728 78.7136 59.7802 74.2432 58.6407L74.2432 42.1617C77.9247 41.2852 81.1679 39.0938 83.4469 36.2012L103.783 51.0148ZM53.2938 103.783 63.7247 90.1086C65.7407 90.9852 67.9321 91.4234 70.2987 91.4234 73.1037 91.4234 75.7333 90.7222 78.0123 89.495L88.8815 103.695C86.5148 106.412 85.1123 109.918 84.937 113.775L57.2383 113.775C57.0629 110.006 55.5728 106.5 53.2938 103.783ZM70.2987 66.9679C74.6815 66.9679 78.1876 70.4741 78.1876 74.8568 78.1876 79.2395 74.6815 82.7457 70.2987 82.7457 65.916 82.7457 62.4099 79.2395 62.4099 74.8568 62.4099 70.4741 65.916 66.9679 70.2987 66.9679ZM70.2987 18.0568C74.6815 18.0568 78.1876 21.563 78.1876 25.9457 78.1876 30.3284 74.6815 33.8346 70.2987 33.8346 65.916 33.8346 62.4099 30.3284 62.4099 25.9457 62.4099 21.563 65.916 18.0568 70.2987 18.0568ZM67.2308 42.337 67.2308 58.4654C62.5852 59.342 58.5531 62.1469 56.1864 66.0913L40.9346 60.7444C40.9346 60.3938 41.0222 60.0432 41.0222 59.6926 41.0222 56.2741 39.9704 53.2062 38.3049 50.5765L57.5889 36.5518C59.8679 39.5321 63.2864 41.6358 67.2308 42.337ZM16.3914 59.7802C16.3914 55.3975 19.8975 51.8913 24.2802 51.8913 28.663 51.8913 32.1691 55.3975 32.1691 59.7802 32.1691 64.1629 28.663 67.6691 24.2802 67.6691 19.8975 67.6691 16.3914 64.0753 16.3914 59.7802ZM29.9778 75.3827C33.8346 73.9802 37.0778 71.1753 39.0062 67.5815L53.7321 72.7531C53.6444 73.4543 53.5568 74.1555 53.5568 74.8568 53.5568 79.1518 55.2222 83.0963 57.9395 86.0765L47.5963 99.5753C45.4049 98.5234 43.0383 97.9975 40.4963 97.9975 39.3568 97.9975 38.3049 98.0852 37.2531 98.3481L29.9778 75.3827ZM40.5839 122.541C36.2012 122.541 32.6951 119.035 32.6951 114.652 32.6951 110.269 36.2012 106.763 40.5839 106.763 44.9667 106.763 48.4728 110.269 48.4728 114.652 48.4728 119.035 44.9667 122.541 40.5839 122.541ZM101.504 122.541C97.121 122.541 93.6148 119.035 93.6148 114.652 93.6148 110.269 97.121 106.763 101.504 106.763 105.886 106.763 109.393 110.269 109.393 114.652 109.393 119.035 105.886 122.541 101.504 122.541ZM101.504 97.9099C98.9617 97.9099 96.595 98.5234 94.4037 99.4876L83.3592 85.1123C85.5506 82.3074 86.8654 78.7136 86.8654 74.8568 86.8654 74.3308 86.8654 73.8049 86.7778 73.3666L103.344 68.0197C105.185 71.1753 107.99 73.7173 111.409 75.2074L103.958 98.2605C103.257 97.9975 102.38 97.9099 101.504 97.9099Z" fill="#FCFBFA" transform="matrix(1 0 0 1 1029.04 817)"/></g></g></g><text fill="#FCFBFA" font-family="Calibri,Calibri_MSFontService,sans-serif" font-weight="700" font-size="37" transform="matrix(1 0 0 1 1203.01 884)">Network &amp;</text><text fill="#FCFBFA" font-family="Calibri,Calibri_MSFontService,sans-serif" font-weight="700" font-size="37" transform="matrix(1 0 0 1 1201.29 928)">Test</text><text fill="#FCFBFA" font-family="Calibri,Calibri_MSFontService,sans-serif" font-weight="700" font-size="37" transform="matrix(1 0 0 1 1273.48 928)">Node</text><text fill="#FCFBFA" font-family="Calibri,Calibri_MSFontService,sans-serif" font-weight="700" font-size="37" transform="matrix(1 0 0 1 1354.83 928)">s</text></g></svg>